<svg width="88" height="88" viewBox="0 0 88 88" fill="none" xmlns="http://www.w3.org/2000/svg">
<path d="M44 29.3333C41.2386 29.3333 39 31.5719 39 34.3333V42.6667C39 45.4281 41.2386 47.6667 44 47.6667C46.7614 47.6667 49 45.4281 49 42.6667V34.3333C49 31.5719 46.7614 29.3333 44 29.3333ZM45.6667 57.5751V60.1667C45.6667 61.0871 44.9205 61.8333 44 61.8333C43.0795 61.8333 42.3333 61.0871 42.3333 60.1667V57.5751C34.8334 56.746 29 50.3876 29 42.6667C29 41.7462 29.7462 41 30.6667 41C31.5871 41 32.3333 41.7462 32.3333 42.6667C32.3333 49.11 37.5567 54.3333 44 54.3333C50.4433 54.3333 55.6667 49.11 55.6667 42.6667C55.6667 41.7462 56.4129 41 57.3333 41C58.2538 41 59 41.7462 59 42.6667C59 50.3876 53.1666 56.746 45.6667 57.5751ZM44 26C48.6024 26 52.3333 29.731 52.3333 34.3333V42.6667C52.3333 47.269 48.6024 51 44 51C39.3976 51 35.6667 47.269 35.6667 42.6667V34.3333C35.6667 29.731 39.3976 26 44 26Z" fill="black"/>
</svg>